# xmcd CD database file
# Copyright (C) 1993-1997  Ti Kan
#
# Track frame offsets:
#	190
#	15915
#	32820
#	46952
#	60300
#	79967
#	95880
#	109290
#	121927
#	137012
#	154575
#	170002
#
# Disc length: 2441 seconds
#
# Revision: 1
# Processed by: cddbd v1.4b41PL1 Copyright (c) Steve Scherf et al.
# Submitted via: xmcd 2.1 PL2
#
DISCID=9709870c
DTITLE=Mary-Ann Brandon
DYEAR=1900
DGENRE=
TTITLE0=Mr. So and So
TTITLE1=It's A Jungle
TTITLE2=What Kind of Man
TTITLE3=Lean, Clean Lovin' Machine
TTITLE4=Don't Deceive Me
TTITLE5=It's a Dirty Job
TTITLE6=Use It or Lose It
TTITLE7=Self Appointed Homecoming Queen
TTITLE8=Everything I Touch Turns to Gold
TTITLE9=Don't Mess With Me Baby
TTITLE10=Illustrated Man
TTITLE11=New Love
EXTD=
EXTT0=
EXTT1=
EXTT2=
EXTT3=
EXTT4=
EXTT5=
EXTT6=
EXTT7=
EXTT8=
EXTT9=
EXTT10=
EXTT11=
PLAYORDER=
